<?xml version="1.0" encoding="UTF-8"?>
<svg width="135px" height="63px" viewBox="0 0 135 63" version="1.1" xmlns="http://www.w3.org/2000/svg" xmlns:xlink="http://www.w3.org/1999/xlink">
    <!-- Generator: Sketch 50.2 (55047) - http://www.bohemiancoding.com/sketch -->
    <title>logo</title>
    <desc>Created with Sketch.</desc>
    <defs></defs>
    <g id="Page-2" stroke="none" stroke-width="1" fill="none" fill-rule="evenodd">
        <g id="Asolvi" transform="translate(-150.000000, -29.000000)" fill-rule="nonzero">
            <g id="logo" transform="translate(150.000000, 29.000000)">
                <path d="M14.1794797,32.4551646 L3.86262367,57.9357548 L0,57.9357548 L14.2245511,24.1150965 L28.3995236,57.9357548 L24.4737999,57.9357548 L14.1794797,32.4551646 Z M31.324661,57.3824064 L31.324661,54.6510783 C32.6407475,55.0185017 33.925284,55.2885358 35.1692561,55.4479001 C36.4132283,55.616118 37.7112862,55.6958002 39.0544155,55.6958002 C41.4026383,55.6958002 43.0928179,55.3637911 44.1339685,54.7041998 C45.1751191,54.0446084 45.697948,53.0751419 45.697948,51.7913734 C45.697948,51.1096481 45.576255,50.5430193 45.328362,50.0870602 C45.080469,49.631101 44.6613045,49.2548241 44.0708684,48.9449489 C43.4759252,48.6395006 42.6556248,48.3960272 41.6144742,48.2101022 L37.6211433,47.5682179 C35.259399,47.1875142 33.5556981,46.4748014 32.5055332,45.438933 C31.4553683,44.3986379 30.9325394,43.0086266 30.9325394,41.2600454 C30.9325394,39.183882 31.788897,37.5326901 33.5151337,36.3108967 C35.2368633,35.0891033 37.8555148,34.4782066 41.3755955,34.4782066 C43.6787468,34.4782066 45.8602052,34.761521 47.9154635,35.3325766 L47.9154635,38.0639047 C45.8286552,37.4839955 43.6607182,37.1874007 41.3981312,37.1874007 C38.9101869,37.1874007 37.1343716,37.5371169 36.0751924,38.2321226 C35.0205203,38.9271283 34.4931843,39.8965948 34.4931843,41.1360953 C34.4931843,42.0745743 34.7861488,42.8404086 35.3720777,43.438025 C35.9580066,44.0356413 36.9811286,44.4650397 38.4459509,44.7173666 L42.4392818,45.3592509 C44.8145475,45.7399546 46.5452913,46.4216799 47.6315134,47.3955732 C48.7177354,48.3694665 49.2585929,49.7594779 49.2585929,51.5656073 C49.2585929,53.7081725 48.3977281,55.3859251 46.6759985,56.5855846 C44.954269,57.7896708 42.3987175,58.391714 39.0093441,58.391714 C36.1157567,58.3872872 33.5511909,58.0508513 31.324661,57.3824064 Z M58.5973983,57.0858116 C56.9027116,56.2181612 55.5911323,54.8901249 54.6581532,53.0972758 C53.7251741,51.3044268 53.2564309,49.0733258 53.2564309,46.399546 C53.2564309,43.7700341 53.7206669,41.5654938 54.6491389,39.7859251 C55.5731037,38.0107832 56.884683,36.6827469 58.5793697,35.7973893 C60.2740564,34.9164586 62.2842433,34.4782066 64.6144375,34.4782066 C68.1886039,34.4782066 70.9740198,35.469807 72.9616709,37.4530079 C74.9538292,39.4362089 75.9454012,42.4198638 75.9454012,46.399546 C75.9454012,49.0290579 75.4811653,51.2424518 74.543679,53.0353008 C73.6106999,54.8281498 72.2946134,56.1650397 70.5954196,57.0548241 C68.8962257,57.9446084 66.8995603,58.3872872 64.6144375,58.3872872 C62.2977647,58.3872872 60.292085,57.953462 58.5973983,57.0858116 Z M72.281092,46.4393871 C72.281092,43.2875142 71.6185416,40.9900114 70.2889337,39.5645857 C68.9638329,38.1347333 67.075339,37.4220204 64.6099304,37.4220204 C62.1490289,37.4220204 60.2560278,38.1347333 58.9309271,39.5557321 C57.6058263,40.976731 56.9387688,43.2520999 56.9387688,46.3818388 C56.9387688,52.4376844 59.4943203,55.4700341 64.6054232,55.4700341 C69.7255405,55.4656073 72.281092,52.4598184 72.281092,46.4393871 Z M82.0841334,57.9800227 L82.0841334,24 L85.7304141,24 L85.7304141,57.9800227 L82.0841334,57.9800227 Z M111.574386,34.8367764 L115.198131,34.8367764 L102.708831,63 L90.097838,34.8367764 L94.0055332,34.8367764 L102.798974,54.9520999 L111.574386,34.8367764 Z M119.349212,57.9800227 L119.349212,34.8367764 L123,34.8367764 L123,57.9800227 L119.349212,57.9800227 Z" id="Shape" fill="#001826"></path>
                <polygon id="Shape" fill="#E4E1DC" points="121 12 107 12 114.031471 0"></polygon>
                <polygon id="Shape" fill="#001826" points="121 12 135 12 127.973025 24"></polygon>
                <polygon id="Shape" fill="#ABC6C9" points="107 12 121 12 113.973025 24 107 12"></polygon>
                <polygon id="Shape" fill="#4F878D" points="128 24 114 24 121.026975 12"></polygon>
            </g>
        </g>
    </g>
</svg>